<?xml version="1.0" standalone="no"?>
<!DOCTYPE svg PUBLIC "-//W3C//DTD SVG 20010904//EN"
 "http://www.w3.org/TR/2001/REC-SVG-20010904/DTD/svg10.dtd">
<svg version="1.0" xmlns="http://www.w3.org/2000/svg"
 width="1874.000000pt" height="560.000000pt" viewBox="0 0 1874.000000 560.000000"
 preserveAspectRatio="xMidYMid meet">

<g transform="translate(0.000000,560.000000) scale(0.100000,-0.100000)"
fill="#000000" stroke="none">
<path d="M1465 5583 c-36 -18 -92 -70 -108 -98 -33 -62 -22 -201 29 -330 54
-141 65 -227 40 -320 -29 -108 -99 -185 -226 -248 -194 -96 -320 -162 -355
-184 -22 -15 -57 -37 -77 -51 -42 -27 -187 -168 -234 -228 -113 -142 -207
-317 -243 -454 -20 -74 -23 -101 -19 -230 4 -132 7 -150 32 -201 42 -89 94
-141 188 -187 50 -25 105 -44 138 -47 30 -4 81 -16 112 -26 32 -11 92 -24 134
-30 42 -6 88 -15 103 -21 14 -6 64 -19 111 -28 179 -37 240 -72 287 -165 25
-50 25 -50 25 -340 1 -334 -5 -375 -67 -435 l-36 -35 -97 1 c-55 1 -145 11
-207 24 -60 12 -135 26 -165 30 -67 9 -112 23 -142 44 -12 9 -31 16 -41 16
-10 0 -36 9 -58 20 -119 61 -293 105 -388 98 -74 -5 -125 -41 -150 -105 -9
-22 -24 -50 -34 -60 -13 -15 -17 -37 -17 -96 0 -66 3 -78 20 -87 11 -6 20 -19
20 -30 0 -32 54 -77 100 -83 23 -3 49 -12 59 -21 10 -9 44 -21 77 -27 32 -6
64 -14 69 -18 6 -4 71 -27 145 -50 74 -23 162 -51 195 -62 33 -12 89 -29 125
-39 36 -10 83 -25 105 -34 22 -8 48 -15 59 -16 31 0 199 -61 233 -84 40 -27
92 -92 97 -120 2 -12 9 -49 15 -83 7 -37 12 -191 12 -395 0 -384 6 -529 25
-575 19 -45 105 -125 157 -146 55 -22 110 -11 156 31 52 49 121 176 153 285
l30 102 4 320 c4 351 7 392 35 446 28 56 106 101 195 113 22 3 68 15 103 26
34 10 85 22 114 26 29 4 88 18 131 30 44 13 89 24 100 24 43 1 184 67 255 120
115 85 183 190 238 365 27 87 28 97 27 310 -1 204 -3 227 -27 324 -15 57 -27
110 -27 117 0 8 -13 43 -30 79 -16 36 -30 68 -30 72 0 3 -19 44 -41 92 -35 73
-56 100 -136 179 -52 50 -99 92 -105 92 -5 0 -23 9 -39 21 -37 26 -197 89
-227 89 -12 0 -76 23 -142 50 -66 28 -124 50 -130 50 -5 0 -39 14 -75 30 -36
17 -70 30 -74 30 -17 0 -70 51 -86 83 -13 26 -17 73 -20 242 -5 293 10 343
120 399 54 27 62 28 156 24 54 -3 104 -9 111 -15 7 -5 42 -20 78 -33 36 -13
76 -29 90 -35 192 -95 277 -135 284 -135 5 0 33 -11 62 -25 42 -20 62 -24 95
-19 61 10 119 59 135 114 22 74 1 119 -105 226 -48 49 -103 101 -122 115 -75
57 -235 132 -329 154 -30 7 -80 20 -110 29 -34 10 -94 16 -157 16 -88 0 -112
4 -169 27 -104 43 -133 93 -139 243 -26 568 -58 668 -232 724 -65 20 -129 20
-168 -1z m-103 -1440 c24 -28 38 -172 38 -393 0 -197 -1 -207 -25 -258 -20
-44 -32 -56 -71 -73 -41 -19 -61 -20 -207 -17 -142 4 -168 7 -209 26 -96 46
-133 144 -89 237 11 24 21 49 21 54 0 16 136 185 191 236 63 59 94 82 209 152
91 57 118 63 142 36z m916 -1283 c130 -50 184 -117 245 -300 14 -41 28 -90 32
-109 4 -19 20 -61 36 -95 20 -42 29 -76 29 -111 -1 -111 -32 -166 -120 -209
-25 -12 -54 -27 -65 -34 -34 -19 -158 -70 -190 -78 -16 -3 -43 -14 -60 -24
-16 -10 -50 -20 -75 -23 -25 -3 -66 -15 -90 -26 -58 -26 -116 -27 -129 -3 -12
23 -31 173 -29 232 1 25 -4 99 -10 165 -27 279 -3 484 66 566 14 17 48 42 76
55 45 21 61 23 141 19 58 -2 109 -11 143 -25z"/>
<path d="M3875 4910 c-145 -38 -232 -87 -385 -221 -36 -31 -83 -62 -104 -70
-59 -21 -90 -76 -105 -188 -15 -109 -17 -480 -2 -571 5 -36 13 -168 16 -295 3
-126 13 -351 21 -499 18 -322 12 -1387 -10 -1650 -18 -226 -6 -313 59 -407 25
-37 66 -86 91 -109 45 -41 46 -42 107 -37 34 2 96 16 137 32 86 32 145 47 250
65 74 13 210 46 303 74 26 8 80 34 119 57 238 144 345 353 356 694 4 136 2
162 -23 275 -29 136 -32 147 -71 265 -46 134 -61 164 -182 343 -158 233 -173
261 -167 295 3 16 27 58 53 94 184 245 250 797 162 1348 -32 202 -129 368
-262 452 -120 75 -222 90 -363 53z m195 -470 c59 -42 92 -126 115 -287 26
-186 17 -437 -21 -591 -22 -88 -35 -112 -102 -187 -32 -35 -85 -95 -120 -134
-49 -55 -73 -73 -105 -82 -23 -6 -46 -14 -52 -19 -17 -12 -59 -20 -82 -14 -14
4 -23 16 -27 37 -3 18 -17 205 -31 417 -13 212 -30 437 -36 501 l-12 115 36
50 c61 85 195 183 296 215 39 12 109 2 141 -21z m-64 -1896 c57 -30 161 -134
196 -196 35 -63 92 -210 117 -303 42 -154 37 -379 -11 -440 -25 -32 -140 -99
-198 -115 -144 -40 -359 -75 -372 -62 -6 6 -11 131 -13 298 -1 159 -8 394 -14
523 -7 128 -10 243 -7 255 4 17 21 25 88 42 116 29 155 29 214 -2z"/>
<path d="M7210 4916 c-93 -19 -147 -39 -308 -118 -159 -78 -183 -101 -257
-242 -32 -63 -35 -74 -35 -157 0 -64 6 -106 20 -146 17 -50 20 -83 20 -258 0
-110 -4 -339 -10 -510 -28 -902 -31 -1113 -15 -1350 9 -126 20 -268 25 -315
14 -131 24 -290 17 -290 -3 0 -25 8 -49 18 -24 10 -71 24 -105 31 -87 17 -131
2 -188 -61 -67 -75 -89 -159 -64 -252 6 -22 15 -58 20 -79 20 -77 91 -128 256
-186 131 -45 184 -53 383 -58 107 -2 247 -7 310 -12 209 -15 320 16 530 150
117 75 217 189 258 294 18 47 69 262 81 342 16 106 14 174 -13 355 -27 178
-63 329 -101 414 -61 137 -191 316 -282 386 -48 37 -41 56 59 190 157 209 208
341 249 643 27 203 -28 523 -136 785 -84 203 -140 281 -257 362 -89 61 -276
91 -408 64z m197 -467 c67 -38 77 -54 148 -232 88 -224 114 -415 79 -584 -16
-80 -59 -186 -92 -228 -16 -20 -114 -102 -199 -168 -7 -5 -70 -29 -140 -53
-107 -37 -134 -50 -171 -86 l-44 -43 6 190 c14 457 18 951 8 988 -11 38 -10
39 45 97 30 32 72 71 93 85 81 56 200 71 267 34z m-374 -1794 c22 -19 46 -35
52 -35 6 0 56 -17 111 -38 54 -21 134 -51 178 -67 124 -44 195 -132 258 -318
16 -47 21 -88 22 -172 1 -96 -3 -121 -28 -200 -51 -154 -82 -194 -191 -248
-140 -69 -190 -82 -312 -82 -118 1 -141 11 -124 58 15 40 15 117 -3 397 -15
249 -22 740 -10 740 3 0 24 -16 47 -35z"/>
<path d="M11764 4846 c-34 -15 -95 -85 -112 -131 -39 -101 -43 -155 -47 -700
-3 -312 -9 -562 -15 -601 -15 -90 -35 -133 -69 -140 -59 -14 -204 -53 -281
-76 -107 -32 -161 -17 -179 49 -14 49 -14 198 0 420 18 284 -15 635 -70 757
-74 163 -254 148 -306 -26 -41 -138 -41 -226 -2 -773 6 -93 12 -345 12 -560 0
-386 -20 -1408 -30 -1495 -18 -164 -36 -483 -33 -576 3 -103 5 -114 32 -152
46 -66 91 -95 155 -100 158 -10 214 139 238 623 4 94 7 208 7 255 -7 420 -4
932 5 966 19 70 48 87 233 138 92 25 181 46 197 46 55 0 55 -4 56 -480 1 -312
5 -455 14 -505 7 -38 15 -80 17 -91 13 -70 130 -184 188 -184 59 0 136 72 190
177 23 46 21 172 -11 548 -24 277 -27 363 -25 635 1 173 7 374 12 445 5 72 19
324 31 560 12 237 25 489 30 560 9 151 0 221 -40 310 -47 104 -113 137 -197
101z"/>
<path d="M5474 4607 c-67 -17 -112 -42 -177 -97 -82 -69 -125 -131 -173 -248
-24 -59 -44 -113 -44 -119 0 -7 -20 -63 -45 -125 -46 -112 -113 -333 -134
-438 -26 -130 -50 -272 -62 -365 -17 -125 -16 -647 1 -743 6 -37 16 -96 21
-132 18 -113 92 -458 111 -520 23 -73 82 -227 106 -275 39 -80 127 -190 200
-251 74 -62 110 -83 162 -96 19 -5 52 -13 73 -19 82 -21 229 37 316 123 136
136 278 555 342 1008 56 399 63 1073 14 1355 -22 128 -92 377 -115 410 -14 20
-50 152 -59 216 -12 90 -48 145 -141 214 -112 83 -168 107 -264 111 -46 2
-103 -2 -132 -9z m158 -564 c29 -33 90 -166 118 -257 56 -182 80 -394 80 -710
0 -240 -22 -549 -51 -721 -35 -206 -64 -337 -99 -450 -22 -73 -79 -184 -102
-198 -45 -29 -142 106 -183 253 -60 215 -76 284 -106 455 -61 362 -12 965 111
1343 29 90 89 202 143 268 32 38 65 44 89 17z"/>
<path d="M17010 4489 c-183 -26 -300 -128 -300 -259 0 -148 97 -223 325 -250
101 -12 120 -25 111 -75 -12 -61 -26 -291 -46 -705 -21 -454 -27 -1136 -11
-1275 6 -44 13 -141 17 -217 l6 -136 -48 -22 c-27 -12 -105 -36 -174 -52 -221
-53 -247 -68 -295 -165 -26 -51 -29 -68 -29 -148 0 -101 16 -143 80 -214 53
-59 111 -82 224 -88 112 -6 229 13 365 59 86 29 239 93 260 108 6 4 37 17 70
30 94 35 264 118 335 162 184 115 379 286 522 457 40 47 75 88 78 91 44 44
151 202 199 295 l41 79 0 633 0 633 -48 97 c-125 252 -222 389 -378 535 -104
96 -169 144 -279 203 -38 21 -81 46 -95 55 -60 39 -254 109 -365 131 -247 48
-419 60 -565 38z m646 -620 c271 -83 557 -344 691 -629 66 -141 79 -178 102
-285 6 -27 15 -71 21 -97 23 -105 3 -301 -40 -403 -75 -175 -126 -249 -281
-404 -121 -120 -289 -256 -366 -296 -21 -10 -49 -27 -63 -36 -25 -17 -147 -69
-161 -69 -21 0 -42 188 -54 480 -3 74 -14 261 -23 415 -23 383 -20 1169 4
1257 26 92 53 103 170 67z"/>
<path d="M9210 4279 c-19 -6 -60 -18 -90 -26 -197 -55 -374 -208 -529 -457
-24 -38 -56 -98 -72 -133 -16 -36 -37 -77 -48 -91 -24 -36 -104 -238 -140
-354 -26 -85 -34 -119 -71 -273 -6 -27 -14 -149 -17 -270 -6 -232 2 -322 47
-505 10 -41 28 -120 40 -175 48 -220 102 -346 200 -470 108 -135 181 -185 330
-225 120 -31 172 -50 192 -67 29 -26 78 -19 158 21 41 21 116 51 165 68 126
41 176 72 329 203 58 50 228 257 303 370 22 33 54 81 72 107 72 106 154 323
197 523 54 253 83 513 66 592 -6 26 -14 80 -17 118 -9 97 -23 183 -50 295 -66
275 -161 437 -310 531 -78 50 -245 149 -250 149 -2 0 -28 11 -57 24 -29 13
-69 28 -88 34 -50 15 -318 23 -360 11z m277 -500 c96 -23 136 -42 212 -101 78
-61 166 -161 209 -238 61 -108 90 -323 72 -532 -12 -147 -30 -212 -94 -356
-120 -266 -214 -393 -423 -573 -59 -51 -128 -100 -166 -118 -151 -72 -381 -58
-482 31 -72 64 -107 139 -162 348 -42 162 -43 170 -50 347 -7 202 4 303 53
476 48 170 76 222 147 271 32 22 68 53 80 70 47 64 236 245 302 288 39 25 95
53 125 63 30 9 66 20 80 24 36 12 44 12 97 0z"/>
<path d="M13290 4280 c-267 -14 -433 -103 -611 -325 -177 -221 -368 -607 -419
-847 -5 -24 -18 -83 -30 -133 -17 -71 -23 -133 -27 -290 -6 -260 10 -391 89
-700 71 -279 119 -376 257 -527 71 -77 124 -110 236 -144 44 -13 109 -34 145
-45 36 -11 78 -28 94 -38 34 -23 82 -14 166 28 30 15 100 43 155 60 106 35
187 82 295 171 94 78 125 112 257 285 50 65 209 307 232 353 120 237 220 763
193 1016 -6 56 -14 130 -17 166 -4 36 -17 115 -30 175 -63 292 -162 474 -310
570 -157 101 -304 179 -391 208 -68 22 -128 26 -284 17z m199 -501 c94 -30
138 -53 204 -106 136 -108 230 -242 258 -368 20 -85 22 -327 5 -456 -23 -173
-105 -368 -244 -577 -100 -150 -332 -362 -459 -418 -133 -59 -385 -42 -472 33
-83 71 -97 101 -181 408 -43 155 -51 493 -16 648 23 104 66 231 100 300 26 52
39 66 83 90 29 15 62 42 75 59 46 63 235 244 308 294 75 52 150 84 195 84 13
0 27 5 30 10 8 13 70 13 114 -1z"/>
<path d="M15625 4279 c-108 -6 -144 -13 -214 -38 -203 -75 -380 -247 -536
-521 -134 -236 -173 -324 -231 -520 -19 -63 -39 -128 -44 -145 -33 -108 -45
-226 -44 -445 0 -191 4 -240 22 -325 12 -55 28 -131 36 -168 85 -391 142 -511
332 -701 55 -55 110 -83 215 -110 113 -29 182 -52 227 -76 39 -21 54 -18 162
32 41 19 109 45 150 57 41 13 95 33 120 46 59 31 247 182 297 239 111 126 313
416 371 532 75 150 158 491 187 769 19 187 -7 424 -77 705 -13 52 -61 176 -91
235 -45 89 -147 199 -207 223 -8 3 -51 28 -95 55 -180 110 -330 170 -419 165
-17 0 -89 -5 -161 -9z m235 -510 c104 -28 180 -77 274 -174 102 -105 147 -189
172 -320 20 -111 23 -341 5 -445 -32 -186 -133 -408 -266 -588 -127 -173 -340
-356 -465 -399 -131 -46 -352 -26 -440 39 -44 32 -106 128 -123 191 -92 328
-107 411 -107 583 0 296 101 618 211 675 42 21 72 51 161 159 107 130 325 280
406 280 17 0 34 5 37 10 10 15 53 12 135 -11z"/>
</g>
</svg>
