<?xml version="1.0" encoding="UTF-8"?>
<svg id="Layer_2" data-name="Layer 2" xmlns="http://www.w3.org/2000/svg" viewBox="0 0 1869.63 368.68">
  <defs>
    <style>
      .cls-1 {
        fill: #fff;
      }
    </style>
  </defs>
  <g id="Layer_1-2" data-name="Layer 1">
    <g>
      <g>
        <path class="cls-1" d="M610.37,256.26c-2.19.38-4.13.56-5.81.56-4.39,0-7.62-1.05-9.67-3.15-2.06-2.1-3.08-5.25-3.08-9.46v-70.47h28.3v-36.84h-28.3v-37.27h-49.74v37.27h-20.59v36.84h20.59v76.08c0,14.85,4.35,26.22,13.03,34.12,8.69,7.89,21.34,11.84,37.97,11.84,4.67,0,9.41-.35,14.22-1.05,4.81-.7,10.02-1.84,15.62-3.43l-7.43-36.15c-1.21.38-2.92.75-5.11,1.12Z"/>
        <path class="cls-1" d="M748.59,145.09c-11.82-6.77-25.94-10.16-42.38-10.16s-30.54,3.39-42.31,10.16c-11.77,6.77-20.81,16.21-27.11,28.3-6.31,12.1-9.46,26.22-9.46,42.38s3.15,30.15,9.46,42.24c6.3,12.1,15.34,21.53,27.11,28.3,11.77,6.77,25.87,10.16,42.31,10.16s30.57-3.38,42.38-10.16c11.81-6.77,20.87-16.2,27.18-28.3,6.3-12.09,9.45-26.18,9.45-42.24s-3.15-30.28-9.45-42.38c-6.31-12.09-15.37-21.53-27.18-28.3ZM731.22,238.12c-2.2,6.49-5.35,11.51-9.46,15.06-4.11,3.55-9.2,5.32-15.27,5.32s-11.26-1.77-15.55-5.32c-4.3-3.55-7.52-8.57-9.66-15.06-2.15-6.49-3.22-14.03-3.22-22.62s1.07-16.2,3.22-22.56c2.15-6.35,5.37-11.28,9.66-14.78,4.29-3.5,9.48-5.25,15.55-5.25s11.16,1.75,15.27,5.25c4.11,3.5,7.26,8.43,9.46,14.78,2.19,6.35,3.29,13.87,3.29,22.56s-1.1,16.14-3.29,22.62Z"/>
        <path class="cls-1" d="M928.9,215.77c-7.66-6.91-19.29-11.81-34.88-14.71l-30.12-5.6c-6.63-1.31-11.19-3.13-13.66-5.47-2.47-2.33-3.71-5.04-3.71-8.12,0-3.92,1.98-7.03,5.95-9.32,3.97-2.28,8.85-3.43,14.64-3.43,6.54,0,11.98,1.59,16.32,4.76,4.34,3.18,6.84,7.19,7.49,12.05l45.54-1.12c-1.22-15.5-7.91-27.69-20.11-36.56-12.19-8.88-28.88-13.31-50.09-13.31-14.2,0-26.48,1.99-36.84,5.95-10.37,3.97-18.38,9.65-24.03,17.02-5.65,7.38-8.48,16.35-8.48,26.9,0,12.05,3.85,21.86,11.56,29.42,7.71,7.57,19.36,12.84,34.96,15.83l27.32,5.32c12.7,2.43,19.05,6.96,19.05,13.59,0,3.83-2.01,6.94-6.02,9.32-4.02,2.38-9.25,3.57-15.69,3.57-7.01,0-12.8-1.47-17.37-4.41-4.58-2.94-7.43-7.26-8.55-12.96l-49.17,1.12c1.87,15.51,9.25,27.86,22.14,37.06,12.89,9.2,30.49,13.8,52.82,13.8,14.01,0,26.46-2.19,37.34-6.58,10.88-4.39,19.45-10.55,25.71-18.49,6.25-7.94,9.38-17.28,9.38-28.02,0-11.49-3.83-20.69-11.49-27.6Z"/>
        <path class="cls-1" d="M1079.65,142.29c-8.17-4.9-17.72-7.35-28.65-7.35-11.77,0-21.67,2.73-29.7,8.19-8.04,5.47-13.82,13.01-17.37,22.63h-1.82v-80.98h-48.06v208.75h49.88v-89.24c0-5.98,1.09-11.09,3.29-15.34,2.19-4.25,5.28-7.5,9.25-9.74,3.97-2.24,8.57-3.36,13.8-3.36,8.03,0,14.24,2.45,18.63,7.35,4.39,4.91,6.59,11.7,6.59,20.39v89.95h49.88v-99.75c0-11.86-2.24-22.18-6.72-30.96-4.48-8.78-10.81-15.62-18.98-20.53Z"/>
        <path class="cls-1" d="M1169.11,78.12c-5-4.62-11.04-6.94-18.14-6.94s-13.03,2.31-18.07,6.94c-5.04,4.63-7.57,10.25-7.57,16.89s2.52,12.28,7.57,16.95c5.04,4.67,11.07,7,18.07,7s13.15-2.33,18.14-7c5-4.67,7.5-10.32,7.5-16.95s-2.5-12.26-7.5-16.89Z"/>
        <rect class="cls-1" x="1126.17" y="136.9" width="49.88" height="156.63"/>
        <path class="cls-1" d="M1432.58,134.94c-11.58,0-21.62,2.83-30.12,8.48-8.5,5.65-14.24,13.1-17.23,22.35h-1.68c-1.96-9.34-6.82-16.81-14.57-22.42-7.75-5.6-17.09-8.41-28.02-8.41s-19.87,2.75-27.67,8.27c-7.8,5.51-13.33,13.03-16.6,22.55h-1.82v-28.86h-47.21v156.63h49.88v-92.6c0-5.23.93-9.72,2.8-13.45,1.87-3.74,4.46-6.66,7.78-8.76,3.31-2.1,7.16-3.15,11.56-3.15,6.44,0,11.63,2.1,15.55,6.31,3.92,4.2,5.89,9.9,5.89,17.09v94.57h47.91v-93.45c0-7.47,1.97-13.42,5.89-17.86s9.29-6.66,16.11-6.66c6.35,0,11.54,2.06,15.55,6.16,4.02,4.11,6.03,10.04,6.03,17.79v94.01h49.88v-105.49c0-16.54-4.62-29.52-13.87-38.95-9.24-9.43-21.25-14.15-36-14.15Z"/>
        <path class="cls-1" d="M1621.09,148.67c-6.26-4.48-13.59-7.89-22-10.23-8.41-2.33-17.56-3.5-27.46-3.5-14.1,0-26.13,2.15-36.07,6.44-9.95,4.3-17.75,10.2-23.4,17.72-5.65,7.52-9.13,16.04-10.44,25.57l45.81,1.54c1.12-4.95,3.67-8.87,7.64-11.77,3.97-2.89,9.27-4.34,15.9-4.34,6.16,0,11.02,1.45,14.57,4.34,3.55,2.9,5.33,6.91,5.33,12.05v.7c0,3.18-1.24,5.66-3.72,7.43-2.47,1.78-6.42,3.08-11.84,3.92-5.42.84-12.56,1.68-21.43,2.52-7.94.56-15.42,1.84-22.42,3.85-7.01,2.01-13.2,4.88-18.57,8.61-5.37,3.74-9.57,8.6-12.61,14.57-3.04,5.98-4.55,13.31-4.55,22,0,10.37,2.19,18.96,6.59,25.78,4.39,6.82,10.48,11.93,18.28,15.34,7.8,3.41,16.69,5.11,26.69,5.11,7.29,0,13.8-.96,19.55-2.87,5.74-1.91,10.76-4.69,15.06-8.34,4.29-3.64,7.89-8.17,10.79-13.59h1.12v21.99h46.94v-106.48c0-8.22-1.73-15.55-5.19-21.99-3.46-6.45-8.32-11.91-14.57-16.39ZM1591.39,237.77c0,5.14-1.29,9.62-3.85,13.45-2.57,3.83-6.02,6.84-10.37,9.04-4.34,2.2-9.17,3.29-14.5,3.29-5.79,0-10.51-1.35-14.15-4.07-3.64-2.71-5.47-6.63-5.47-11.77,0-3.45.84-6.39,2.53-8.82,1.68-2.43,4.18-4.46,7.49-6.1,3.32-1.63,7.35-2.78,12.12-3.43,2.24-.37,4.6-.75,7.07-1.12,2.47-.37,4.92-.84,7.35-1.4,2.43-.56,4.65-1.14,6.66-1.75,2-.61,3.71-1.28,5.11-2.03v14.71Z"/>
        <path class="cls-1" d="M1747.95,134.94c-8.5,0-15.99,2.5-22.49,7.5-6.49,5-11.14,12.73-13.94,23.19h-1.68v-28.72h-48.33v156.63h49.88v-85.04c0-6.16,1.33-11.58,3.99-16.25,2.66-4.67,6.35-8.31,11.07-10.92,4.72-2.62,10.02-3.92,15.9-3.92,2.99,0,6.4.21,10.23.63,3.83.42,6.96,1.05,9.38,1.89v-43.15c-2.05-.65-4.32-1.12-6.79-1.4-2.47-.28-4.88-.42-7.22-.42Z"/>
        <path class="cls-1" d="M1862.21,255.14c-1.21.38-2.92.75-5.11,1.12-2.19.38-4.13.56-5.81.56-4.39,0-7.62-1.05-9.67-3.15-2.06-2.1-3.08-5.25-3.08-9.46v-70.47h28.3v-36.84h-28.3v-37.27h-49.74v37.27h-20.59v36.84h20.59v76.08c0,14.85,4.35,26.22,13.03,34.12s21.34,11.84,37.97,11.84c4.67,0,9.41-.35,14.22-1.05,4.81-.7,10.02-1.84,15.62-3.43l-7.43-36.15Z"/>
      </g>
      <path class="cls-1" d="M193.56,0C86.65,0,0,86.66,0,193.57c0,77.37,45.38,144.12,110.98,175.11,11.34-5.35,21.89-11.52,31.42-18.41,24.02-17.31,41.9-39.06,51.16-63.52,12.94,34.12,42.69,63.03,82.59,81.93,65.6-30.99,110.98-97.74,110.98-175.11C387.13,86.66,300.47,0,193.56,0ZM244.74,247.35c-24.05,10.75-41.92,24.25-51.16,39.41-18.52-30.32-71.52-54-139.39-62.28,33.94-9.28,64.15-27.16,88.2-51.19,24.04-24.05,41.91-54.28,51.16-88.22,9.26,33.94,27.14,64.16,51.19,88.22,24.05,24.05,54.26,41.93,88.2,51.19-33.94,4.15-64.15,12.13-88.2,22.87Z"/>
    </g>
  </g>
</svg>